<mxfile host="app.diagrams.net" agent="Mozilla/5.0 (Windows NT 10.0; Win64; x64) AppleWebKit/537.36 (KHTML, like Gecko) Chrome/130.0.0.0 Safari/537.36" version="24.7.14">
  <diagram name="Page-1" id="s-X5KFM3s4Uk3z4-7ppp">
    <mxGraphModel dx="1434" dy="752" grid="1" gridSize="10" guides="1" tooltips="1" connect="1" arrows="1" fold="1" page="1" pageScale="1" pageWidth="827" pageHeight="1169" math="0" shadow="0">
      <root>
        <mxCell id="0" />
        <mxCell id="1" parent="0" />
        <mxCell id="ZJ0YUTRqLwALlBvn8h17-1" value="Visiteur" style="shape=umlActor;verticalLabelPosition=bottom;verticalAlign=top;html=1;outlineConnect=0;" vertex="1" parent="1">
          <mxGeometry x="80" y="120" width="30" height="60" as="geometry" />
        </mxCell>
        <mxCell id="ZJ0YUTRqLwALlBvn8h17-2" value="&lt;div&gt;Utilisateur connecté&amp;nbsp;&lt;/div&gt;&lt;div&gt;(avec personnage)&lt;/div&gt;" style="shape=umlActor;verticalLabelPosition=bottom;verticalAlign=top;html=1;outlineConnect=0;" vertex="1" parent="1">
          <mxGeometry x="80" y="270" width="30" height="60" as="geometry" />
        </mxCell>
        <mxCell id="ZJ0YUTRqLwALlBvn8h17-5" value="Admin&lt;div&gt;&lt;br&gt;&lt;/div&gt;" style="shape=umlActor;verticalLabelPosition=bottom;verticalAlign=top;html=1;outlineConnect=0;" vertex="1" parent="1">
          <mxGeometry x="80" y="570" width="30" height="60" as="geometry" />
        </mxCell>
        <mxCell id="ZJ0YUTRqLwALlBvn8h17-10" value="Consulter le guide" style="ellipse;whiteSpace=wrap;html=1;" vertex="1" parent="1">
          <mxGeometry x="190" y="190" width="120" height="40" as="geometry" />
        </mxCell>
        <mxCell id="ZJ0YUTRqLwALlBvn8h17-11" value="Consulter les actualités du site" style="ellipse;whiteSpace=wrap;html=1;" vertex="1" parent="1">
          <mxGeometry x="190" y="250" width="120" height="50" as="geometry" />
        </mxCell>
        <mxCell id="ZJ0YUTRqLwALlBvn8h17-12" value="Consulter les mentions légales" style="ellipse;whiteSpace=wrap;html=1;" vertex="1" parent="1">
          <mxGeometry x="190" y="340" width="120" height="40" as="geometry" />
        </mxCell>
        <mxCell id="ZJ0YUTRqLwALlBvn8h17-15" value="Lancer un combat" style="ellipse;whiteSpace=wrap;html=1;" vertex="1" parent="1">
          <mxGeometry x="354" y="350" width="120" height="50" as="geometry" />
        </mxCell>
        <mxCell id="ZJ0YUTRqLwALlBvn8h17-16" value="Equiper son personnage" style="ellipse;whiteSpace=wrap;html=1;" vertex="1" parent="1">
          <mxGeometry x="354" y="290" width="120" height="40" as="geometry" />
        </mxCell>
        <mxCell id="ZJ0YUTRqLwALlBvn8h17-17" value="Modifier son deck" style="ellipse;whiteSpace=wrap;html=1;" vertex="1" parent="1">
          <mxGeometry x="500" y="180" width="120" height="40" as="geometry" />
        </mxCell>
        <mxCell id="ZJ0YUTRqLwALlBvn8h17-18" value="Consulter son profil" style="ellipse;whiteSpace=wrap;html=1;" vertex="1" parent="1">
          <mxGeometry x="354" y="420" width="120" height="40" as="geometry" />
        </mxCell>
        <mxCell id="ZJ0YUTRqLwALlBvn8h17-20" value="Créer un compte" style="ellipse;whiteSpace=wrap;html=1;" vertex="1" parent="1">
          <mxGeometry x="180" y="40" width="120" height="40" as="geometry" />
        </mxCell>
        <mxCell id="ZJ0YUTRqLwALlBvn8h17-21" value="Créer un personnage" style="ellipse;whiteSpace=wrap;html=1;" vertex="1" parent="1">
          <mxGeometry x="580" y="520" width="120" height="50" as="geometry" />
        </mxCell>
        <mxCell id="ZJ0YUTRqLwALlBvn8h17-22" value="Se connecter" style="ellipse;whiteSpace=wrap;html=1;" vertex="1" parent="1">
          <mxGeometry x="180" y="90" width="120" height="40" as="geometry" />
        </mxCell>
        <mxCell id="ZJ0YUTRqLwALlBvn8h17-23" value="Consulter la boutique" style="ellipse;whiteSpace=wrap;html=1;" vertex="1" parent="1">
          <mxGeometry x="190" y="460" width="120" height="50" as="geometry" />
        </mxCell>
        <mxCell id="ZJ0YUTRqLwALlBvn8h17-24" value="Acheter des cartes" style="ellipse;whiteSpace=wrap;html=1;" vertex="1" parent="1">
          <mxGeometry x="190" y="550" width="120" height="50" as="geometry" />
        </mxCell>
        <mxCell id="ZJ0YUTRqLwALlBvn8h17-25" value="Acheter de l&#39;équipement" style="ellipse;whiteSpace=wrap;html=1;" vertex="1" parent="1">
          <mxGeometry x="310" y="535" width="120" height="50" as="geometry" />
        </mxCell>
        <mxCell id="ZJ0YUTRqLwALlBvn8h17-30" value="&amp;lt;&amp;lt;extend&amp;gt;&amp;gt;" style="edgeStyle=none;html=1;startArrow=open;endArrow=none;startSize=12;verticalAlign=bottom;dashed=1;labelBackgroundColor=none;rounded=0;entryX=0.5;entryY=0;entryDx=0;entryDy=0;exitX=0.5;exitY=1;exitDx=0;exitDy=0;" edge="1" parent="1" source="ZJ0YUTRqLwALlBvn8h17-23" target="ZJ0YUTRqLwALlBvn8h17-24">
          <mxGeometry x="0.5" y="-30" width="160" relative="1" as="geometry">
            <mxPoint x="380" y="570" as="sourcePoint" />
            <mxPoint x="540" y="570" as="targetPoint" />
            <mxPoint as="offset" />
          </mxGeometry>
        </mxCell>
        <mxCell id="ZJ0YUTRqLwALlBvn8h17-31" value="&amp;lt;&amp;lt;extend&amp;gt;&amp;gt;" style="edgeStyle=none;html=1;startArrow=open;endArrow=none;startSize=12;verticalAlign=bottom;dashed=1;labelBackgroundColor=none;rounded=0;exitX=1;exitY=1;exitDx=0;exitDy=0;" edge="1" parent="1" source="ZJ0YUTRqLwALlBvn8h17-23" target="ZJ0YUTRqLwALlBvn8h17-25">
          <mxGeometry x="0.8921" y="20" width="160" relative="1" as="geometry">
            <mxPoint x="410" y="543" as="sourcePoint" />
            <mxPoint x="290" y="620" as="targetPoint" />
            <mxPoint as="offset" />
          </mxGeometry>
        </mxCell>
        <mxCell id="ZJ0YUTRqLwALlBvn8h17-32" value="" style="endArrow=classic;html=1;rounded=0;" edge="1" parent="1" source="ZJ0YUTRqLwALlBvn8h17-1" target="ZJ0YUTRqLwALlBvn8h17-10">
          <mxGeometry width="50" height="50" relative="1" as="geometry">
            <mxPoint x="390" y="410" as="sourcePoint" />
            <mxPoint x="440" y="360" as="targetPoint" />
          </mxGeometry>
        </mxCell>
        <mxCell id="ZJ0YUTRqLwALlBvn8h17-33" value="" style="endArrow=classic;html=1;rounded=0;exitX=0.5;exitY=0.5;exitDx=0;exitDy=0;exitPerimeter=0;" edge="1" parent="1" source="ZJ0YUTRqLwALlBvn8h17-1" target="ZJ0YUTRqLwALlBvn8h17-11">
          <mxGeometry width="50" height="50" relative="1" as="geometry">
            <mxPoint x="120" y="152" as="sourcePoint" />
            <mxPoint x="215" y="99" as="targetPoint" />
          </mxGeometry>
        </mxCell>
        <mxCell id="ZJ0YUTRqLwALlBvn8h17-34" value="" style="endArrow=classic;html=1;rounded=0;exitX=0.5;exitY=0.5;exitDx=0;exitDy=0;exitPerimeter=0;" edge="1" parent="1" target="ZJ0YUTRqLwALlBvn8h17-12">
          <mxGeometry width="50" height="50" relative="1" as="geometry">
            <mxPoint x="105" y="160" as="sourcePoint" />
            <mxPoint x="185" y="145" as="targetPoint" />
          </mxGeometry>
        </mxCell>
        <mxCell id="ZJ0YUTRqLwALlBvn8h17-35" value="" style="endArrow=classic;html=1;rounded=0;" edge="1" parent="1" target="ZJ0YUTRqLwALlBvn8h17-22">
          <mxGeometry width="50" height="50" relative="1" as="geometry">
            <mxPoint x="110" y="150" as="sourcePoint" />
            <mxPoint x="201" y="176" as="targetPoint" />
          </mxGeometry>
        </mxCell>
        <mxCell id="ZJ0YUTRqLwALlBvn8h17-36" value="" style="endArrow=classic;html=1;rounded=0;" edge="1" parent="1" source="ZJ0YUTRqLwALlBvn8h17-1" target="ZJ0YUTRqLwALlBvn8h17-20">
          <mxGeometry width="50" height="50" relative="1" as="geometry">
            <mxPoint x="120" y="160" as="sourcePoint" />
            <mxPoint x="206" y="134" as="targetPoint" />
          </mxGeometry>
        </mxCell>
        <mxCell id="ZJ0YUTRqLwALlBvn8h17-37" value="Se déconnecter" style="ellipse;whiteSpace=wrap;html=1;" vertex="1" parent="1">
          <mxGeometry x="190" y="390" width="120" height="50" as="geometry" />
        </mxCell>
        <mxCell id="ZJ0YUTRqLwALlBvn8h17-38" value="" style="endArrow=classic;html=1;rounded=0;exitX=0.5;exitY=0;exitDx=0;exitDy=0;exitPerimeter=0;entryX=0;entryY=0.5;entryDx=0;entryDy=0;" edge="1" parent="1" source="ZJ0YUTRqLwALlBvn8h17-2" target="ZJ0YUTRqLwALlBvn8h17-10">
          <mxGeometry width="50" height="50" relative="1" as="geometry">
            <mxPoint x="390" y="410" as="sourcePoint" />
            <mxPoint x="440" y="360" as="targetPoint" />
          </mxGeometry>
        </mxCell>
        <mxCell id="ZJ0YUTRqLwALlBvn8h17-39" value="" style="endArrow=classic;html=1;rounded=0;" edge="1" parent="1" source="ZJ0YUTRqLwALlBvn8h17-2" target="ZJ0YUTRqLwALlBvn8h17-11">
          <mxGeometry width="50" height="50" relative="1" as="geometry">
            <mxPoint x="105" y="410" as="sourcePoint" />
            <mxPoint x="200" y="220" as="targetPoint" />
          </mxGeometry>
        </mxCell>
        <mxCell id="ZJ0YUTRqLwALlBvn8h17-40" value="" style="endArrow=classic;html=1;rounded=0;" edge="1" parent="1" source="ZJ0YUTRqLwALlBvn8h17-2" target="ZJ0YUTRqLwALlBvn8h17-12">
          <mxGeometry width="50" height="50" relative="1" as="geometry">
            <mxPoint x="115" y="420" as="sourcePoint" />
            <mxPoint x="235" y="308" as="targetPoint" />
          </mxGeometry>
        </mxCell>
        <mxCell id="ZJ0YUTRqLwALlBvn8h17-41" value="Voir sa collection de cartes" style="ellipse;whiteSpace=wrap;html=1;" vertex="1" parent="1">
          <mxGeometry x="354" y="180" width="120" height="40" as="geometry" />
        </mxCell>
        <mxCell id="ZJ0YUTRqLwALlBvn8h17-42" value="&amp;lt;&amp;lt;extend&amp;gt;&amp;gt;" style="edgeStyle=none;html=1;startArrow=open;endArrow=none;startSize=12;verticalAlign=bottom;dashed=1;labelBackgroundColor=none;rounded=0;exitX=1;exitY=0.5;exitDx=0;exitDy=0;" edge="1" parent="1" source="ZJ0YUTRqLwALlBvn8h17-41">
          <mxGeometry x="0.3333" y="20" width="160" relative="1" as="geometry">
            <mxPoint x="450" y="200" as="sourcePoint" />
            <mxPoint x="510" y="200" as="targetPoint" />
            <mxPoint as="offset" />
          </mxGeometry>
        </mxCell>
        <mxCell id="ZJ0YUTRqLwALlBvn8h17-43" value="Utilisateur connecté&amp;nbsp;&lt;div&gt;(sans personnage)&lt;/div&gt;" style="shape=umlActor;verticalLabelPosition=bottom;verticalAlign=top;html=1;outlineConnect=0;" vertex="1" parent="1">
          <mxGeometry x="80" y="380" width="30" height="60" as="geometry" />
        </mxCell>
        <mxCell id="ZJ0YUTRqLwALlBvn8h17-45" value="" style="endArrow=classic;html=1;rounded=0;exitX=0.5;exitY=0.5;exitDx=0;exitDy=0;exitPerimeter=0;" edge="1" parent="1" source="ZJ0YUTRqLwALlBvn8h17-43" target="ZJ0YUTRqLwALlBvn8h17-10">
          <mxGeometry width="50" height="50" relative="1" as="geometry">
            <mxPoint x="390" y="410" as="sourcePoint" />
            <mxPoint x="440" y="360" as="targetPoint" />
          </mxGeometry>
        </mxCell>
        <mxCell id="ZJ0YUTRqLwALlBvn8h17-46" value="" style="endArrow=classic;html=1;rounded=0;exitX=0.5;exitY=0.5;exitDx=0;exitDy=0;exitPerimeter=0;" edge="1" parent="1" target="ZJ0YUTRqLwALlBvn8h17-11">
          <mxGeometry width="50" height="50" relative="1" as="geometry">
            <mxPoint x="105" y="420" as="sourcePoint" />
            <mxPoint x="245" y="239" as="targetPoint" />
          </mxGeometry>
        </mxCell>
        <mxCell id="ZJ0YUTRqLwALlBvn8h17-47" value="" style="endArrow=classic;html=1;rounded=0;exitX=0.5;exitY=0.5;exitDx=0;exitDy=0;exitPerimeter=0;" edge="1" parent="1" target="ZJ0YUTRqLwALlBvn8h17-12">
          <mxGeometry width="50" height="50" relative="1" as="geometry">
            <mxPoint x="115" y="430" as="sourcePoint" />
            <mxPoint x="237" y="308" as="targetPoint" />
          </mxGeometry>
        </mxCell>
      </root>
    </mxGraphModel>
  </diagram>
</mxfile>
